<?xml version="1.0" standalone="no"?>
<!DOCTYPE svg PUBLIC "-//W3C//DTD SVG 20010904//EN"
 "http://www.w3.org/TR/2001/REC-SVG-20010904/DTD/svg10.dtd">
<svg version="1.0" xmlns="http://www.w3.org/2000/svg"
 width="6912.000000pt" height="3456.000000pt" viewBox="0 0 6912.000000 3456.000000"
 preserveAspectRatio="xMidYMid meet">

<g transform="translate(0.000000,3456.000000) scale(0.100000,-0.100000)"
fill="#000000" stroke="none">
<path d="M18855 22183 c-270 -35 -789 -177 -884 -242 -54 -36 -457 -418 -745
-706 -315 -314 -522 -547 -628 -705 -16 -25 -16 -25 -11 20 11 103 56 300 94
413 76 231 281 605 442 807 20 24 34 46 32 48 -5 5 -645 -205 -1200 -393 -808
-275 -1306 -459 -1465 -541 -63 -33 -98 -62 -220 -189 -612 -631 -1040 -1166
-1198 -1497 -26 -54 -51 -97 -56 -98 -13 0 0 225 19 335 34 198 97 412 266
902 52 149 92 274 89 277 -11 10 -267 -55 -425 -108 -333 -112 -636 -259 -977
-472 l-123 -77 -645 -832 c-355 -458 -646 -832 -647 -831 -2 2 464 1220 514
1344 12 29 -222 -121 -419 -270 -180 -136 -291 -230 -427 -362 -170 -167 -208
-220 -279 -389 -97 -230 -304 -794 -515 -1407 l-15 -45 -1 55 c-1 30 17 392
39 804 22 412 38 751 36 753 -5 6 -194 -124 -274 -189 -104 -84 -282 -264
-365 -368 -226 -282 -313 -493 -377 -917 -23 -154 -50 -414 -50 -483 0 -27 -4
-52 -10 -55 -5 -3 -23 21 -39 53 -86 170 -236 352 -376 457 -70 52 -193 114
-285 143 -68 21 -199 46 -207 39 -7 -8 90 -263 227 -592 75 -181 149 -366 164
-409 29 -86 68 -238 62 -244 -2 -2 -29 27 -58 65 -76 94 -203 211 -279 256
-161 95 -324 96 -489 4 -63 -35 -189 -158 -240 -232 l-34 -50 59 51 c143 121
221 157 345 158 74 1 92 -3 143 -27 32 -16 85 -54 117 -84 172 -159 255 -429
235 -766 l-7 -129 -820 -409 c-452 -225 -826 -409 -833 -409 -7 0 -18 14 -25
30 -33 79 -117 104 -171 51 -35 -36 -38 -83 -9 -141 l20 -40 -552 -275 c-304
-151 -582 -289 -618 -306 -72 -35 -262 -139 -540 -297 -483 -275 -720 -435
-720 -485 0 -37 49 -20 315 108 387 187 491 225 745 270 80 14 163 30 185 35
22 5 328 156 680 334 352 179 643 326 646 326 3 0 14 -18 24 -41 31 -69 66
-99 115 -99 33 0 48 6 71 29 37 37 37 73 2 146 -17 34 -24 58 -18 64 13 11
1485 761 1495 761 7 0 139 -203 223 -345 53 -89 196 -384 208 -429 53 -197 15
-342 -130 -487 -77 -78 -75 -81 21 -33 131 66 248 175 303 284 25 50 86 239
111 349 42 178 36 310 -15 393 -30 47 -30 49 -9 43 36 -10 182 -111 302 -208
244 -199 470 -406 963 -884 l282 -274 88 -11 c132 -16 709 -12 1003 6 694 45
1263 114 1488 181 28 9 52 20 52 25 0 5 -144 239 -320 520 -176 281 -324 519
-330 530 -12 22 -60 41 668 -269 l493 -209 309 88 c567 163 883 266 1215 397
178 70 535 238 535 252 0 3 -73 39 -162 80 -377 174 -702 377 -1015 636 -106
87 -416 385 -409 392 2 2 37 -9 77 -25 197 -77 851 -290 1204 -391 749 -214
1204 -286 1496 -238 463 78 1256 336 1809 589 l74 34 -169 115 c-94 64 -620
419 -1170 789 -550 370 -1004 677 -1010 682 -13 12 24 -4 405 -177 512 -232
1198 -523 1500 -636 353 -131 477 -165 650 -174 182 -10 639 30 1025 91 424
66 896 172 1034 232 l40 17 -788 700 c-434 385 -788 701 -787 702 2 2 393
-126 871 -283 l869 -285 60 15 c59 15 324 76 566 130 251 56 545 116 735 150
110 20 212 39 228 42 24 5 -46 62 -689 556 -393 303 -713 552 -711 554 2 2
500 -94 1108 -212 l1104 -216 375 126 c738 247 1116 347 1520 402 157 22 523
25 660 6 277 -39 657 -165 961 -317 38 -19 71 -35 75 -35 19 0 -146 267 -259
420 -187 253 -469 556 -722 775 -772 667 -1784 1157 -2950 1429 -783 182
-1555 267 -2455 270 l-395 1 -755 -452 c-415 -248 -756 -450 -758 -448 -2 1
171 249 383 551 l386 549 -38 7 c-39 7 -285 8 -338 1z m-2273 -1728 c-4 -47
-22 -63 -22 -19 0 21 15 64 23 64 1 0 1 -20 -1 -45z"/>
<path d="M36625 20939 c-242 -14 -443 -72 -640 -184 -321 -183 -557 -502 -639
-865 -41 -178 -41 -367 0 -508 25 -88 87 -202 152 -283 164 -204 358 -343 852
-609 530 -286 721 -445 775 -644 22 -83 17 -201 -13 -268 -25 -57 -94 -128
-151 -158 -117 -59 -339 -72 -549 -31 -283 55 -626 192 -894 358 -49 30 -91
53 -92 52 -3 -4 -486 -819 -492 -829 -3 -7 166 -120 274 -182 351 -203 693
-328 1037 -379 151 -22 434 -27 566 -9 393 53 730 208 987 455 253 242 395
513 433 826 12 104 0 264 -31 382 -79 310 -299 564 -695 803 -88 53 -406 213
-585 294 -325 147 -509 258 -577 348 -152 200 58 465 421 532 102 19 296 8
421 -24 128 -33 311 -124 428 -212 49 -37 92 -63 97 -58 4 5 96 183 204 396
l197 387 -189 94 c-342 171 -615 261 -912 301 -141 19 -242 23 -385 15z"/>
<path d="M42535 20929 c-106 -13 -287 -54 -405 -91 -300 -95 -590 -275 -820
-507 -360 -363 -580 -830 -646 -1371 -20 -164 -15 -498 11 -660 62 -398 214
-757 463 -1089 74 -99 274 -299 382 -383 272 -211 577 -346 924 -411 106 -19
154 -22 386 -22 274 1 358 9 571 55 312 69 627 230 843 431 89 83 89 83 83 49
-3 -19 -9 -91 -12 -160 l-7 -125 244 -84 c133 -46 249 -86 256 -89 9 -3 12
246 12 1227 l0 1231 -1050 0 c-834 0 -1050 -3 -1049 -12 0 -7 39 -179 87 -383
l88 -370 454 -5 455 -5 -4 -65 c-20 -376 -325 -684 -757 -765 -124 -24 -348
-16 -452 15 -414 123 -728 500 -833 997 -25 117 -38 358 -27 485 34 390 218
758 490 982 218 180 472 257 751 228 63 -7 149 -21 193 -32 99 -26 259 -104
345 -169 85 -64 211 -198 269 -284 25 -36 48 -65 52 -64 9 3 642 697 646 709
7 17 -265 277 -373 357 -118 87 -346 208 -495 262 -111 40 -245 73 -400 100
-144 24 -537 35 -675 18z"/>
<path d="M28680 18665 l0 -2195 500 0 500 0 0 2195 0 2195 -500 0 -500 0 0
-2195z"/>
<path d="M33249 20328 c-1 -293 -5 -802 -8 -1132 l-6 -598 -1367 1126 c-752
619 -1369 1126 -1372 1126 -4 0 -6 -985 -6 -2190 l0 -2190 500 0 500 0 0 1125
c0 619 2 1125 5 1125 4 0 2678 -2186 2738 -2238 16 -14 17 90 17 2181 l0 2197
-500 0 -500 0 -1 -532z"/>
<path d="M38920 18665 l0 -2195 500 0 500 0 0 2195 0 2195 -500 0 -500 0 0
-2195z"/>
<path d="M45540 18665 l0 -2195 500 0 500 0 0 845 0 845 585 0 585 0 0 -845 0
-845 500 0 500 0 0 2195 0 2195 -500 0 -500 0 0 -850 0 -850 -585 0 -585 0 0
850 0 850 -500 0 -500 0 0 -2195z"/>
<path d="M49380 20425 l0 -435 525 0 525 0 0 -1760 0 -1760 500 0 500 0 0
1760 0 1760 520 0 520 0 0 435 0 435 -1545 0 -1545 0 0 -435z"/>
<path d="M54030 18665 l0 -2195 500 0 500 0 0 845 0 845 585 0 585 0 0 -845 0
-845 500 0 500 0 0 2195 0 2195 -500 0 -500 0 0 -850 0 -850 -585 0 -585 0 0
850 0 850 -500 0 -500 0 0 -2195z"/>
<path d="M57980 19355 c0 -991 4 -1539 11 -1603 76 -703 445 -1140 1091 -1297
201 -49 312 -60 608 -60 304 0 412 12 623 65 296 75 517 197 700 389 198 207
310 457 370 826 21 128 21 158 24 1658 l4 1527 -500 0 -500 0 -4 -1392 c-4
-1227 -6 -1404 -20 -1485 -25 -140 -45 -210 -86 -298 -68 -144 -174 -234 -334
-284 -75 -22 -99 -25 -272 -25 -154 0 -203 3 -260 18 -209 55 -343 193 -405
418 -54 198 -53 154 -57 1656 l-4 1392 -495 0 -494 0 0 -1505z"/>
<path d="M62150 18655 l0 -2186 953 3 c925 4 955 4 1072 26 499 90 840 315
1010 666 89 183 121 352 112 591 -14 410 -163 693 -496 942 -3 2 18 27 46 56
283 292 383 766 262 1237 -90 350 -299 590 -634 729 -102 43 -183 66 -320 93
-107 21 -138 22 -1057 25 l-948 4 0 -2186z m1485 1400 c159 -22 253 -63 327
-143 83 -89 116 -181 125 -347 17 -318 -108 -498 -387 -560 -50 -11 -147 -18
-292 -22 l-218 -6 0 547 0 546 173 0 c95 0 217 -7 272 -15z m-42 -1760 c390
-55 602 -211 638 -468 27 -202 -52 -384 -210 -482 -131 -81 -291 -114 -598
-122 l-233 -6 0 547 0 546 148 0 c82 0 196 -7 255 -15z"/>
</g>
</svg>
